<svg width="570" height="502" viewBox="0 0 570 502" fill="none" xmlns="http://www.w3.org/2000/svg">
<path fill-rule="evenodd" clip-rule="evenodd" d="M32.1478 4.19617e-05L24.8073 4.00543e-05L0 4.19617e-05L3.8147e-05 473.727V502H67.2029H510.34H535.578H570L570 2.76566e-05L535.578 2.95639e-05L524.01 0L32.1478 4.19617e-05ZM545.073 476.119C544.982 475.141 544.866 474.156 544.751 473.171C544.543 471.388 544.335 469.605 544.265 467.871C544.689 467.381 544.724 467.94 544.763 468.553C544.805 469.215 544.851 469.939 545.391 469.477C545.573 467.948 545.475 466.409 545.373 464.835C545.276 463.314 545.176 461.76 545.326 460.152C545.387 460.471 545.45 460.556 545.503 460.627C545.538 460.675 545.568 460.716 545.591 460.818C545.886 459.148 545.649 459.282 545.367 459.443C545.098 459.596 544.786 459.773 544.853 458.434C545.283 458.58 545.395 458.446 545.622 457.532L544.923 456.728C545.023 456.61 545.468 456.613 545.714 456.905C545.32 456.258 545.259 455.093 545.199 453.965C545.137 452.796 545.077 451.667 544.653 451.194C544.751 451.083 544.967 451.158 545.205 451.24C545.499 451.341 545.83 451.455 546.014 451.244C546.274 449.806 545.941 448.81 545.62 447.848L545.608 447.821C546.011 447.144 546.113 445.83 546.164 445.161C546.191 444.812 546.205 444.638 546.24 444.821C546.4 443.409 546.247 443.397 545.99 443.376C545.769 443.359 545.471 443.335 545.229 442.416L544.829 444.506L544.648 440.816L545.07 442.276C545.268 441.306 545.108 440.322 544.939 439.288C544.813 438.517 544.682 437.717 544.693 436.875L544.19 437.779L543.888 435.534C544.366 435.428 544.454 434.807 544.528 434.289C544.614 433.684 544.68 433.22 545.319 433.882C545.637 431.399 545.297 429.445 544.953 427.471L544.953 427.47C544.728 426.18 544.503 424.882 544.457 423.421C544.484 423.678 544.572 423.686 544.67 423.696C544.72 423.701 544.774 423.706 544.823 423.745C545.063 421.528 544.532 420.193 544.002 418.865C544.141 418.983 544.24 419.149 544.33 419.301C544.447 419.498 544.548 419.669 544.703 419.673C544.715 418.297 544.554 417.925 544.355 417.467C544.174 417.05 543.962 416.562 543.82 415.183C544.247 415.984 544.468 415.733 544.583 414.94C544.203 415.064 543.934 414.398 543.831 413.864C544.921 415.023 545.09 414.025 545.256 413.046C545.397 412.211 545.536 411.392 546.241 411.936C546.095 411.781 545.907 411.248 545.694 410.641C545.279 409.463 544.767 408.007 544.264 408.497C543.912 406.312 543.929 404.067 543.947 401.749C543.962 399.717 543.978 397.629 543.746 395.477C543.807 395.59 543.88 395.823 543.957 396.07C544.15 396.687 544.372 397.393 544.498 396.545C544.704 393.55 544.322 391.376 543.894 388.941C543.667 387.651 543.427 386.286 543.255 384.687C543.92 384.579 543.954 385.866 543.989 387.184C544.023 388.463 544.057 389.77 544.671 389.853C544.395 384.985 543.957 379.978 543.303 374.57C544.286 373.601 544.066 372.246 543.816 370.705C543.576 369.226 543.308 367.575 544.048 365.928C543.403 366.249 543.176 364.58 543.166 362.757C543.444 363.089 543.579 362.697 543.702 362.34C543.81 362.028 543.908 361.743 544.084 361.991C543.5 360.395 543.274 355.788 544.526 355.964C543.88 355.745 543.944 354.782 544.014 353.733C544.075 352.819 544.14 351.839 543.743 351.228C543.978 350.195 543.91 349.088 543.837 347.915C543.768 346.796 543.695 345.615 543.878 344.381C543.4 344.933 543.378 343.841 543.355 342.71C543.344 342.197 543.334 341.675 543.28 341.295C543.334 341.507 543.403 341.685 543.471 341.605C543.815 341.21 543.647 340.44 543.463 339.592C543.292 338.808 543.107 337.956 543.298 337.271C543.419 336.989 543.569 336.984 543.705 336.98C543.879 336.975 544.03 336.971 544.066 336.381C543.524 336.361 542.906 332.529 543.574 331.105C543.571 331.549 543.695 331.697 543.84 331.87C543.91 331.953 543.984 332.042 544.052 332.171C543.616 328.94 543.658 325.602 543.699 322.244C543.744 318.614 543.79 314.96 543.233 311.392L544.143 312.608C544.807 310.215 544.269 309.615 543.687 308.965C543.223 308.448 542.731 307.899 542.794 306.389C542.943 303.487 543.176 300.55 543.409 297.607L543.409 297.605C543.925 291.105 544.443 284.575 544.057 278.325C543.905 277.945 543.819 278.125 543.702 278.37C543.614 278.554 543.508 278.775 543.344 278.825C543.387 278.54 543.513 278.328 543.634 278.123C543.85 277.76 544.052 277.42 543.747 276.735L543.252 276.976C543.864 275.094 543.745 272.458 543.627 269.852C543.485 266.707 543.344 263.603 544.494 261.917C544.143 260.113 544.233 258.551 544.326 256.931C544.439 254.986 544.556 252.959 543.92 250.333C544.146 249.557 544.361 250.026 544.534 250.405C544.701 250.771 544.83 251.052 544.893 250.04L544.141 245.576C543.495 243.388 543.95 240.532 544.423 237.556C544.886 234.65 545.366 231.631 544.859 229.007L544.931 229.238C545.272 229.362 545.687 228.246 545.576 227.371C545.402 227.151 545.286 227.404 545.123 227.76L545.122 227.763C545.061 227.894 544.994 228.04 544.916 228.181C544.363 223.394 544.335 222.318 544.235 218.573L544.233 218.492C544.5 219.368 544.609 218.878 544.761 218.203C544.894 217.61 545.059 216.874 545.39 216.796C545.204 216.39 545.047 216.409 544.902 216.426C544.688 216.45 544.498 216.472 544.273 215.146C544.235 212.963 544.517 210.899 544.78 208.965L544.781 208.961L544.781 208.959C544.901 208.078 545.017 207.225 545.098 206.401C544.844 205.966 544.722 205.475 544.615 205.041C544.459 204.411 544.334 203.902 543.873 203.864C543.859 202.288 543.793 201.018 543.725 199.715C543.638 198.056 543.549 196.344 543.561 193.877L543.829 193.763C543.284 193.099 543.514 191.971 543.719 190.966C543.878 190.188 544.022 189.482 543.779 189.125C543.929 189.178 544.041 189.297 544.142 189.405L544.143 189.406C544.271 189.543 544.382 189.662 544.532 189.595L544.227 187.596C544.517 188.538 545.436 189.072 545.547 187.427C545.173 186.48 545.07 186.727 544.958 186.994C544.869 187.209 544.773 187.438 544.525 187.068L545.429 186.548C545.338 185.257 544.32 184.898 544.04 186.479C544.051 184.54 543.977 182.612 543.904 180.727L543.904 180.723C543.812 178.325 543.722 175.995 543.813 173.798L544.399 174.212C544.189 172.038 544.203 169.102 544.724 167.807C544.703 167.8 544.681 167.786 544.656 167.767C544.619 167.739 544.578 167.7 544.535 167.658C544.373 167.504 544.182 167.322 544.046 167.564C543.661 166.3 543.885 166.204 544.114 166.106C544.316 166.019 544.522 165.931 544.313 165.028C544.448 165.569 544.577 166.076 544.832 166.162L544.13 160.872C544.567 160.814 545.557 157.592 545.179 155.358C544.934 155.272 544.6 155.914 544.547 156.486L544.332 155.055L545.356 153.948L544.468 151.879L545.319 151.837C545.239 151.094 544.939 150.57 544.661 150.086C544.368 149.575 544.1 149.108 544.142 148.475C544.499 145.526 544.746 144.838 545.089 143.877C545.285 143.329 545.513 142.692 545.811 141.498C544.934 141.303 545.024 139.803 545.112 138.331C545.188 137.067 545.262 135.823 544.723 135.441C545.522 132.619 545.51 128.989 545.498 125.229C545.491 123.135 545.484 121.001 545.617 118.943L545.759 119.412C546.158 118.125 545.805 117.42 545.424 116.662C545.077 115.969 544.708 115.233 544.869 113.968L545.109 114.63C545.991 111.223 545.219 105.255 544.542 102.03C544.785 102.688 545.309 102.352 545.255 101.311C545.116 100.924 544.876 101.045 544.679 101.145C544.429 101.273 544.247 101.365 544.423 100.341C544.578 100.791 544.936 100.433 544.947 100.016L544.141 98.2277C544.715 93.5305 545.318 88.0033 544.866 83.1364C545.093 82.4311 545.32 82.6802 545.542 82.9236L545.543 82.9247C545.605 82.9926 545.666 83.0601 545.727 83.1059C545.648 81.1383 545.435 79.1772 545.228 77.2658C545.029 75.4274 544.835 73.634 544.769 71.9251L545.71 71.5685C545.713 70.8493 545.458 70.5499 545.225 70.2771C544.906 69.9034 544.63 69.5795 545.119 68.2937C545.172 68.0901 545.191 68.2995 545.224 68.6594C545.27 69.1779 545.345 70.009 545.59 70.3678C545.979 68.5323 545.691 68.0826 545.357 67.5607C545.067 67.1065 544.742 66.5974 544.796 65.0746L545.855 65.9258C546.351 63.9697 545.74 63.3266 545.151 62.7079C544.984 62.5324 544.819 62.3586 544.682 62.1575C544.086 60.4623 544.542 59.8169 545.072 59.0674C545.642 58.2618 546.297 57.3356 545.82 54.8545C545.56 54.4769 545.367 54.5402 545.174 54.6035C544.981 54.6667 544.788 54.7301 544.528 54.3528C544.671 52.6648 544.555 51.7218 544.439 50.7771C544.324 49.8342 544.208 48.8889 544.349 47.1999C545.159 46.2779 545.143 46.7406 545.128 47.1572C545.114 47.5589 545.101 47.9173 545.832 46.9503L545.463 49.521C545.891 48.3939 545.937 48.9302 546.001 49.6855C546.064 50.4182 546.144 51.3567 546.608 51.1829C546.798 50.0421 546.489 48.5001 546.178 46.9455L546.177 46.9438L546.177 46.9424C546.034 46.2292 545.891 45.5136 545.795 44.8327C546.116 44.831 546.162 45.3424 546.205 45.8122C546.257 46.3843 546.303 46.8949 546.832 46.3433L546.546 45.2346C546.6 45.3121 546.657 45.3731 546.713 45.432C546.873 45.6026 547.018 45.7557 547.002 46.2403C547.434 45.9791 547.327 45.511 547.192 44.9269C547.119 44.6055 547.037 44.2486 547.032 43.872C546.679 43.8049 546.19 43.8525 545.698 44.1658C545.758 44.1176 545.82 44.0433 545.884 43.9266C545.347 42.7781 545.314 41.2091 545.283 39.7108C545.256 38.3778 545.23 37.1001 544.85 36.2245C545.002 36.4416 545.076 36.3665 545.17 36.2706C545.206 36.2348 545.244 36.1962 545.29 36.1692C545.313 35.4582 545.051 34.7373 544.764 33.9466C544.52 33.2756 544.257 32.5538 544.136 31.7454C544.326 31.3966 544.583 31.3713 544.82 31.3481C545.24 31.3067 545.598 31.2715 545.419 29.4699C545.227 29.3054 544.988 29.3303 544.754 29.3546C544.274 29.4045 543.816 29.452 543.837 27.8629C543.837 27.8629 544.311 29.9296 544.729 28.8211C544.502 27.5117 544.592 27.4394 544.835 27.2448C545.023 27.0946 545.302 26.8714 545.597 25.949C545.288 25.4982 545.252 25.0616 545.257 24.6782C544.529 24.6921 543.796 24.7199 543.056 24.7479C541.351 24.8125 539.608 24.8784 537.805 24.7795C538.164 24.7387 538.259 24.6973 538.338 24.6627C538.391 24.6394 538.438 24.6192 538.552 24.6043C536.68 24.4096 536.83 24.5657 537.01 24.7522C537.182 24.93 537.38 25.1355 535.879 25.0913C536.043 24.8075 535.893 24.7335 534.868 24.584L533.967 25.0452C533.833 24.979 533.837 24.6857 534.164 24.5228C533.439 24.783 532.133 24.8237 530.868 24.8631C529.558 24.904 528.292 24.9434 527.761 25.2239C527.637 25.1588 527.721 25.0165 527.813 24.8594C527.926 24.6647 528.054 24.4467 527.818 24.3251C526.205 24.1533 525.089 24.3729 524.01 24.5851L523.979 24.593C523.22 24.3271 521.747 24.2598 520.997 24.2255C520.606 24.2077 520.41 24.1988 520.615 24.1754C519.033 24.0702 519.019 24.1712 518.996 24.341C518.976 24.4868 518.949 24.6833 517.919 24.8435L520.262 25.1073L516.125 25.2271L517.763 24.9484C516.674 24.8172 515.571 24.9233 514.412 25.0348C513.547 25.118 512.65 25.2043 511.706 25.1969L512.72 25.5295L510.202 25.7285C510.084 25.4135 509.387 25.355 508.806 25.3064C508.128 25.2496 507.608 25.206 508.351 24.7836C505.566 24.5741 503.376 24.7986 501.162 25.0255C499.716 25.1738 498.259 25.323 496.621 25.3529C496.909 25.3355 496.918 25.2773 496.929 25.2125C496.934 25.1792 496.94 25.1436 496.984 25.1116C494.498 24.9527 493.001 25.3033 491.512 25.6539C491.644 25.5618 491.831 25.4964 492.001 25.4371C492.222 25.36 492.414 25.2928 492.418 25.1905C490.875 25.1829 490.459 25.2892 489.945 25.4206C489.478 25.5399 488.93 25.6798 487.384 25.7738C488.282 25.4914 488.001 25.3456 487.112 25.27C487.25 25.5208 486.504 25.6982 485.906 25.7665C487.205 25.0465 486.085 24.9348 484.988 24.8254C484.052 24.7321 483.133 24.6404 483.743 24.1747C483.569 24.2716 482.972 24.3955 482.291 24.5365C480.971 24.8102 479.338 25.1485 479.887 25.4803C477.437 25.7131 474.92 25.7018 472.321 25.6901C470.043 25.6798 467.702 25.6693 465.288 25.8227C465.415 25.7826 465.676 25.7344 465.953 25.6833C466.645 25.5555 467.437 25.4093 466.487 25.3262C463.128 25.1898 460.691 25.4422 457.96 25.7251C456.513 25.8749 454.983 26.0333 453.191 26.1469C453.069 25.7077 454.513 25.6852 455.99 25.6621C457.424 25.6398 458.89 25.6169 458.983 25.2116C453.525 25.394 447.911 25.6834 441.847 26.115C440.76 25.4659 439.241 25.611 437.513 25.7762C435.855 25.9347 434.004 26.1116 432.157 25.6233C432.517 26.0493 430.645 26.1991 428.601 26.2054C428.974 26.0219 428.534 25.9326 428.134 25.8514C427.784 25.7805 427.465 25.7156 427.743 25.5994C425.953 25.9852 420.788 26.1344 420.985 25.3074C420.739 25.7343 419.66 25.692 418.484 25.6459C417.458 25.6056 416.359 25.5625 415.675 25.8248C414.517 25.6694 413.276 25.7146 411.96 25.7625C410.705 25.8081 409.381 25.8563 407.997 25.7352C408.616 26.0508 407.392 26.0656 406.123 26.0809C405.548 26.0879 404.964 26.0949 404.538 26.1301C404.775 26.0948 404.974 26.0489 404.885 26.0045C404.442 25.7772 403.579 25.8877 402.628 26.0096C401.749 26.1223 400.794 26.2446 400.026 26.1186C399.709 26.0387 399.704 25.9395 399.699 25.8498C399.694 25.7348 399.689 25.6352 399.027 25.6113C399.005 25.9692 394.709 26.3771 393.112 25.9359C393.609 25.9383 393.775 25.8563 393.97 25.7603C394.063 25.7143 394.162 25.6652 394.307 25.6205C390.684 25.9084 386.942 25.881 383.177 25.8534C379.107 25.8237 375.009 25.7937 371.009 26.1615L372.372 25.5602C369.689 25.1221 369.016 25.4772 368.287 25.8617C367.708 26.1679 367.092 26.4927 365.399 26.4509C362.145 26.353 358.852 26.1991 355.552 26.045L355.55 26.0449C348.262 25.7043 340.94 25.3622 333.933 25.6172C333.506 25.7174 333.708 25.7742 333.983 25.8516C334.189 25.9097 334.437 25.9794 334.493 26.0878C334.173 26.0598 333.935 25.9766 333.706 25.8963C333.299 25.7536 332.917 25.6202 332.15 25.8219L332.42 26.1488C330.309 25.7448 327.354 25.8234 324.433 25.9012C320.905 25.9951 317.425 26.0878 315.534 25.3285C313.513 25.5607 311.76 25.5011 309.944 25.4393C307.764 25.3652 305.49 25.2879 302.546 25.7078C301.676 25.5584 302.202 25.4167 302.627 25.3024C303.037 25.1918 303.353 25.1068 302.218 25.0651L297.213 25.562C294.759 25.9884 291.557 25.6882 288.22 25.3754C284.962 25.07 281.577 24.7526 278.635 25.0876L278.893 25.0397C279.032 24.8148 277.781 24.5406 276.8 24.6144C276.553 24.729 276.837 24.8056 277.236 24.9133L277.239 24.9142C277.387 24.954 277.55 24.9981 277.708 25.0499C272.341 25.4151 271.135 25.4339 266.934 25.4997L266.844 25.5011C267.827 25.3249 267.277 25.2524 266.52 25.1524C265.856 25.0647 265.031 24.9558 264.943 24.7371C264.488 24.8598 264.509 24.9632 264.528 25.0593C264.555 25.2004 264.58 25.326 263.093 25.4743C260.646 25.4996 258.331 25.3137 256.163 25.1396L256.158 25.1393C255.17 25.0599 254.213 24.983 253.287 24.9297C252.8 25.0979 252.249 25.178 251.763 25.2487C251.056 25.3514 250.486 25.4344 250.443 25.7386C248.676 25.7479 247.252 25.7916 245.791 25.8366C243.931 25.8938 242.011 25.9529 239.246 25.9448L239.117 25.7677C238.373 26.1279 237.108 25.9758 235.981 25.8403C235.108 25.7353 234.318 25.6402 233.917 25.8011C233.976 25.7016 234.11 25.6277 234.231 25.5612L234.232 25.5606C234.386 25.4756 234.519 25.4025 234.444 25.3033L232.202 25.5049C233.259 25.3134 233.857 24.7063 232.013 24.633C230.951 24.8803 231.228 24.9483 231.528 25.0219C231.769 25.0813 232.026 25.1444 231.61 25.3079L231.028 24.7109C229.58 24.771 229.177 25.4439 230.95 25.6286C228.776 25.6213 226.615 25.6703 224.501 25.7182L224.496 25.7183C221.807 25.7793 219.196 25.8385 216.732 25.778L217.196 25.3916C214.759 25.5297 211.466 25.5208 210.014 25.1767C209.994 25.2115 209.924 25.2548 209.847 25.302C209.674 25.4087 209.47 25.535 209.742 25.6246C208.324 25.8784 208.217 25.7306 208.107 25.5797C208.01 25.446 207.911 25.3099 206.898 25.4481C207.505 25.3589 208.074 25.2738 208.17 25.1056L202.239 25.569C202.173 25.2804 198.56 24.6266 196.056 24.8762C195.959 25.0381 196.679 25.2585 197.321 25.2936L195.716 25.4354L194.474 24.7592L192.155 25.346L192.108 24.7838C191.275 24.8364 190.688 25.0349 190.144 25.2184C189.572 25.4117 189.048 25.5886 188.338 25.5612C185.032 25.325 184.26 25.1625 183.183 24.9354C182.569 24.806 181.854 24.6555 180.516 24.4586C180.296 25.0383 178.615 24.9789 176.964 24.9206C175.547 24.8705 174.153 24.8213 173.724 25.1772C170.56 24.65 166.49 24.6577 162.273 24.6657C159.926 24.6702 157.533 24.6748 155.226 24.5872L155.752 24.4935C154.308 24.2297 153.518 24.4632 152.668 24.7142C151.892 24.9434 151.065 25.1873 149.647 25.0809L150.39 24.9224C146.57 24.3398 139.878 24.85 136.262 25.2972C137 25.1367 136.623 24.7906 135.456 24.8261C135.022 24.918 135.158 25.0761 135.27 25.2063C135.413 25.3716 135.516 25.492 134.368 25.3754C134.873 25.2733 134.471 25.0367 134.004 25.0294L131.999 25.5621C126.732 25.1827 120.535 24.7846 115.078 25.0828C114.287 24.9332 114.566 24.7832 114.839 24.6367L114.84 24.6361C114.916 24.5952 114.992 24.5546 115.043 24.5143C112.837 24.5666 110.638 24.7069 108.495 24.8437C106.434 24.9753 104.423 25.1037 102.507 25.1472L102.107 24.5253C101.301 24.5236 100.965 24.6922 100.659 24.8457C100.24 25.0563 99.8769 25.2387 98.4352 24.9156C98.2068 24.8806 98.4419 24.8682 98.8459 24.8467C99.4273 24.8159 100.358 24.7665 100.761 24.6046C98.7027 24.3482 98.1985 24.5381 97.6133 24.7585C97.104 24.9502 96.5332 25.165 94.8258 25.1291L95.7802 24.43C93.5869 24.1024 92.8659 24.506 92.1722 24.8945C91.9753 25.0047 91.7805 25.1137 91.555 25.2044C89.6543 25.5981 88.9306 25.2967 88.0902 24.9467C87.187 24.5704 86.1485 24.1378 83.3666 24.4527C82.9431 24.6245 83.0141 24.752 83.0851 24.8795C83.156 25.0069 83.2271 25.1346 82.804 25.3063C80.9113 25.2118 79.854 25.2882 78.7948 25.3647C77.7374 25.4411 76.6778 25.5177 74.7838 25.4243C73.75 24.8895 74.2688 24.9003 74.736 24.91C75.1863 24.9193 75.5882 24.9277 74.504 24.4448L77.3864 24.6887C76.1226 24.4061 76.7239 24.3758 77.5708 24.3332C78.3923 24.2918 79.4446 24.2388 79.2498 23.9326C77.9707 23.8073 76.2417 24.0112 74.4986 24.2168L74.4967 24.217C73.6965 24.3114 72.8936 24.4061 72.1296 24.4694C72.1277 24.2577 72.7009 24.227 73.2276 24.1988C73.8691 24.1644 74.4419 24.1337 73.8234 23.7845L72.5802 23.9735C72.6671 23.9381 72.7355 23.9002 72.8015 23.8636C72.9929 23.7573 73.1645 23.6621 73.7078 23.6726C73.415 23.3869 72.8901 23.458 72.2353 23.5466C71.8749 23.5954 71.4747 23.6496 71.0524 23.6525C70.9772 23.8854 71.0305 24.2089 71.3818 24.5334C71.3278 24.4941 71.2445 24.4528 71.1136 24.4104C69.8258 24.7654 68.0666 24.7868 66.3866 24.8073C64.892 24.8254 63.4595 24.8429 62.4777 25.0935C62.7211 24.9931 62.6369 24.9442 62.5294 24.882C62.4893 24.8587 62.446 24.8334 62.4157 24.8029C61.6184 24.7876 60.81 24.9607 59.9235 25.1505C59.1711 25.3116 58.362 25.4849 57.4555 25.5652C57.0644 25.4396 57.036 25.2698 57.01 25.1131C56.9637 24.8362 56.9241 24.5997 54.9041 24.7178C54.7196 24.8444 54.7475 25.0024 54.7748 25.1569C54.8307 25.4737 54.884 25.7761 53.1023 25.7625C53.1023 25.7625 55.4195 25.4494 54.1767 25.1731C52.7085 25.3233 52.6274 25.2639 52.4092 25.1032C52.2408 24.9792 51.9905 24.7949 50.9563 24.6001C50.3541 24.843 49.7744 24.8308 49.2913 24.8206C48.6869 24.8078 48.2337 24.7983 48.077 25.2952C47.4752 24.8737 47.4151 24.8605 46.8491 24.736C46.6151 24.6847 46.2948 24.6143 45.8148 24.4885C46.1797 24.7312 45.4058 24.8501 44.5544 24.9809C43.7025 25.1118 42.7723 25.2547 42.8278 25.5453C42.5316 25.2532 43.0253 25.0618 43.4935 24.8804C44.0935 24.6479 44.6508 24.4318 43.4449 24.0414C42.9553 24.1884 42.3241 24.304 41.6929 24.4196C40.4397 24.6491 39.187 24.8786 39.0409 25.3543C38.6667 25.2988 38.3602 25.2327 38.0531 25.1666L38.0518 25.1663C37.4624 25.0394 36.8702 24.9119 35.7954 24.8571C36.0327 24.8515 36.2848 24.7523 36.4318 24.6944L36.4483 24.6879C35.1661 24.8836 33.6311 24.9145 32.1478 24.9443C30.042 24.9866 28.0404 25.0268 27.015 25.5335C27.2627 25.1213 26.2603 25.0159 25.1173 24.9771C25.1835 25.6866 25.3848 26.2891 25.5818 26.8789L25.5937 26.9061C25.1911 27.5832 25.0892 28.8971 25.0373 29.5664C25.0103 29.9152 24.9968 30.0893 24.9614 29.9065C24.802 31.318 24.955 31.3303 25.2121 31.351C25.4329 31.3686 25.7305 31.3923 25.9731 32.3115L26.3725 30.2218L26.554 33.9117L26.132 32.4508C25.9333 33.4214 26.0939 34.4053 26.2628 35.439C26.3888 36.2105 26.5194 37.0104 26.5082 37.8522L27.0119 36.9483L27.3133 39.1936C26.8362 39.2989 26.7477 39.9207 26.674 40.4387C26.588 41.0434 26.5221 41.5069 25.8824 40.8448C25.5652 43.3283 25.9051 45.2821 26.2487 47.2563C26.4732 48.5462 26.6993 49.8453 26.7445 51.3063C26.7181 51.0493 26.6299 51.0409 26.5319 51.0316C26.4815 51.0268 26.4275 51.0217 26.3791 50.9821C26.1385 53.1997 26.6694 54.5347 27.2002 55.8625C27.0608 55.7446 26.9618 55.578 26.8721 55.4268C26.7552 55.2296 26.6535 55.0581 26.4986 55.0546C26.487 56.4308 26.648 56.802 26.847 57.2603C27.0276 57.6769 27.2395 58.1657 27.3818 59.5445C26.9542 58.743 26.7334 58.9941 26.619 59.7868C26.9988 59.6637 27.2674 60.3294 27.3708 60.8629C26.2805 59.7043 26.1114 60.7028 25.9456 61.6815C25.8043 62.5159 25.6655 63.3358 24.9603 62.7914C25.1071 62.9466 25.2947 63.4794 25.5082 64.0863C25.9226 65.2641 26.435 66.7202 26.9374 66.2303C27.2899 68.4153 27.2728 70.6604 27.2551 72.9784C27.2396 75.0101 27.2236 77.0982 27.4558 79.2508C27.3951 79.1375 27.3222 78.9047 27.2447 78.6575C27.0513 78.0403 26.8299 77.3344 26.704 78.1819C26.4976 81.1775 26.8797 83.351 27.308 85.7865C27.5349 87.0767 27.7748 88.4414 27.9469 90.0399C27.2818 90.1486 27.2476 88.8609 27.2127 87.5435C27.1789 86.2644 27.1442 84.9573 26.5305 84.8743C26.8067 89.742 27.2449 94.749 27.8985 100.157C26.9156 101.126 27.1354 102.481 27.3855 104.023C27.6254 105.501 27.8933 107.152 27.1539 108.799C27.799 108.478 28.0259 110.148 28.0354 111.97C27.7575 111.638 27.6223 112.031 27.4994 112.388C27.392 112.699 27.2938 112.984 27.1178 112.736C27.7019 114.333 27.9279 118.939 26.6756 118.763C27.3221 118.983 27.258 119.945 27.1881 120.994C27.1272 121.909 27.0619 122.889 27.4591 123.499C27.2238 124.532 27.2922 125.639 27.3647 126.812C27.4338 127.932 27.5067 129.112 27.3234 130.347C27.8014 129.795 27.8237 130.886 27.8469 132.018C27.8574 132.53 27.8681 133.052 27.9214 133.432C27.868 133.22 27.7984 133.042 27.7312 133.122C27.3869 133.518 27.5543 134.287 27.7389 135.136C27.9095 135.92 28.0948 136.771 27.904 137.456C27.7829 137.739 27.6328 137.743 27.497 137.747C27.3227 137.752 27.1719 137.756 27.1358 138.346C27.6777 138.367 28.2954 142.198 27.6273 143.622C27.631 143.179 27.5068 143.031 27.3614 142.857C27.2918 142.774 27.2173 142.686 27.1497 142.556C27.5856 145.787 27.5441 149.125 27.5024 152.483C27.4573 156.113 27.4119 159.767 27.969 163.335L27.0583 162.119C26.395 164.512 26.9327 165.113 27.515 165.762C27.9786 166.279 28.4705 166.828 28.4072 168.338C28.2589 171.24 28.0259 174.177 27.7925 177.12L27.7923 177.122C27.2767 183.622 26.7586 190.152 27.1447 196.402C27.2964 196.782 27.3824 196.603 27.4997 196.357C27.5877 196.173 27.6933 195.952 27.8573 195.902C27.815 196.188 27.6889 196.4 27.5673 196.604C27.3513 196.968 27.1492 197.307 27.4547 197.992L27.9497 197.751C27.3379 199.634 27.457 202.269 27.5748 204.875C27.717 208.021 27.8573 211.124 26.7075 212.811C27.0591 214.614 26.9689 216.177 26.8754 217.797C26.7631 219.741 26.6461 221.769 27.2819 224.395C27.0556 225.17 26.8411 224.701 26.668 224.323C26.5005 223.957 26.3718 223.675 26.3086 224.687L27.0612 229.151C27.7068 231.34 27.2522 234.196 26.7786 237.171C26.3161 240.077 25.8355 243.096 26.3428 245.72L26.2703 245.49C25.9296 245.366 25.5145 246.482 25.6262 247.357C25.7997 247.577 25.9157 247.324 26.0789 246.967L26.0801 246.965C26.1404 246.833 26.2072 246.687 26.2857 246.546C26.8386 251.333 26.8672 252.409 26.9667 256.155L26.9689 256.236C26.7021 255.359 26.5923 255.849 26.4409 256.525C26.3081 257.117 26.1431 257.853 25.812 257.931C25.9979 258.337 26.1543 258.319 26.2999 258.302C26.5135 258.277 26.7037 258.255 26.9284 259.581C26.9666 261.764 26.6851 263.829 26.4215 265.763L26.4207 265.768C26.3007 266.649 26.1844 267.502 26.1037 268.327C26.3583 268.761 26.4796 269.252 26.5867 269.686C26.7423 270.316 26.868 270.825 27.3285 270.864C27.3426 272.44 27.4089 273.709 27.4769 275.012C27.5636 276.671 27.653 278.383 27.6408 280.85L27.3726 280.965C27.9181 281.628 27.6878 282.756 27.4825 283.761C27.3235 284.54 27.1796 285.245 27.4232 285.603C27.2724 285.55 27.1605 285.43 27.0598 285.322L27.0591 285.321C26.9303 285.184 26.8197 285.066 26.6693 285.132L26.9747 287.132C26.6847 286.189 25.7653 285.656 25.6543 287.301C26.0288 288.247 26.1317 288 26.2433 287.733C26.3332 287.518 26.4288 287.289 26.6763 287.659L25.7723 288.179C25.8634 289.471 26.8822 289.829 27.162 288.248C27.1509 290.187 27.2251 292.115 27.2977 294L27.2979 294.005C27.3902 296.403 27.4799 298.732 27.3883 300.929L26.8032 300.515C27.0123 302.689 26.9987 305.626 26.4777 306.92C26.5303 306.938 26.596 307.001 26.6674 307.069C26.8291 307.224 27.0202 307.406 27.1559 307.163C27.5403 308.427 27.3165 308.523 27.0879 308.621C26.8855 308.708 26.6793 308.796 26.8887 309.7C26.7535 309.158 26.6247 308.651 26.37 308.565L27.0717 313.855C26.6347 313.914 25.6447 317.136 26.0226 319.369C26.2678 319.455 26.6016 318.813 26.6546 318.241L26.8695 319.672L25.8455 320.78L26.734 322.848L25.8827 322.89C25.9624 323.633 26.2629 324.157 26.5408 324.642C26.8336 325.152 27.1014 325.619 27.0599 326.253C26.7023 329.201 26.4562 329.889 26.1123 330.851C25.9164 331.398 25.6884 332.035 25.3903 333.229C26.2681 333.425 26.1782 334.924 26.0899 336.397C26.0141 337.66 25.9395 338.904 26.4784 339.286C25.6801 342.108 25.6918 345.738 25.7039 349.499C25.7107 351.592 25.7177 353.726 25.585 355.784L25.4432 355.315C25.0437 356.602 25.3972 357.308 25.7773 358.066C26.1244 358.758 26.4937 359.495 26.3326 360.759L26.0926 360.097C25.2103 363.504 25.983 369.472 26.6602 372.697C26.4171 372.039 25.8931 372.375 25.9468 373.417C26.0859 373.803 26.3253 373.682 26.5226 373.582C26.7728 373.455 26.9551 373.362 26.7786 374.387C26.624 373.936 26.2657 374.294 26.2546 374.711L27.0612 376.5C26.4868 381.197 25.884 386.724 26.3354 391.591C26.1089 392.296 25.8818 392.047 25.66 391.804L25.6591 391.803C25.5971 391.735 25.5356 391.667 25.4746 391.621C25.5538 393.589 25.7663 395.55 25.9735 397.462C26.1728 399.3 26.3671 401.093 26.433 402.802L25.4913 403.159C25.4887 403.878 25.744 404.177 25.9765 404.45C26.2953 404.824 26.5716 405.148 26.0823 406.434C26.0293 406.637 26.0105 406.428 25.978 406.067C25.9314 405.549 25.8566 404.718 25.6114 404.36C25.2231 406.195 25.5106 406.645 25.8444 407.167C26.1346 407.621 26.4599 408.13 26.4056 409.653L25.347 408.802C24.851 410.758 25.4621 411.401 26.0503 412.019C26.2172 412.195 26.3822 412.369 26.5197 412.57C27.1158 414.265 26.6595 414.91 26.1294 415.66C25.5596 416.466 24.9045 417.392 25.3814 419.873C25.6415 420.25 25.8345 420.187 26.0276 420.124C26.2205 420.061 26.414 419.997 26.6739 420.375C26.5308 422.063 26.6465 423.006 26.7623 423.95C26.878 424.893 26.994 425.838 26.8527 427.527C26.0428 428.449 26.0591 427.987 26.0738 427.57C26.0879 427.168 26.1006 426.81 25.3694 427.777L25.7387 425.206C25.3108 426.333 25.265 425.797 25.2004 425.042C25.1377 424.309 25.0575 423.371 24.5938 423.544C24.4041 424.685 24.7128 426.227 25.0241 427.782L25.0245 427.784C25.1674 428.497 25.3107 429.213 25.4066 429.895C25.0861 429.896 25.0396 429.385 24.9968 428.915C24.9448 428.343 24.8983 427.832 24.3695 428.384L24.6557 429.493C24.6021 429.415 24.5446 429.354 24.4892 429.295C24.3283 429.125 24.1842 428.972 24.2001 428.487C23.7675 428.748 23.875 429.216 24.0093 429.8C24.0832 430.122 24.1652 430.479 24.1695 430.855C24.5224 430.922 25.0122 430.875 25.5035 430.562C25.444 430.61 25.3815 430.684 25.3173 430.801C25.8548 431.949 25.8873 433.518 25.9183 435.017C25.9458 436.35 25.9722 437.627 26.3517 438.503C26.1996 438.286 26.1256 438.361 26.0314 438.457C25.9961 438.493 25.9579 438.531 25.9116 438.558C25.8885 439.269 26.1506 439.99 26.4381 440.781C26.6821 441.452 26.9444 442.173 27.066 442.982C26.8758 443.331 26.6187 443.356 26.3814 443.379C25.9621 443.421 25.6039 443.456 25.7828 445.257C25.9745 445.422 26.2137 445.397 26.4477 445.373C26.9274 445.323 27.3853 445.275 27.3648 446.864C27.3648 446.864 26.8906 444.798 26.4722 445.906C26.6997 447.216 26.6097 447.288 26.3665 447.483C26.1787 447.633 25.8995 447.856 25.6046 448.778C25.9723 449.315 25.9538 449.832 25.9384 450.263C25.9191 450.802 25.9047 451.206 26.6571 451.346C26.0189 451.883 25.9989 451.937 25.8104 452.441C25.7326 452.65 25.626 452.936 25.4355 453.364C25.8031 453.038 25.9831 453.729 26.1812 454.488C26.3793 455.248 26.5958 456.077 27.0359 456.028C26.5936 456.292 26.3037 455.852 26.029 455.434C25.6769 454.899 25.3497 454.402 24.7585 455.478C24.9812 455.914 25.1562 456.477 25.3312 457.04C25.6788 458.158 26.0263 459.275 26.7467 459.405C26.6625 459.739 26.5625 460.012 26.4624 460.286L26.4619 460.287C26.2697 460.813 26.0767 461.341 25.9937 462.3C25.9852 462.088 25.8348 461.863 25.7472 461.732L25.7375 461.717C26.0339 462.861 26.0806 464.23 26.1257 465.553C26.1898 467.431 26.2507 469.216 27.018 470.131C26.2284 469.851 26.1824 471.355 26.1431 472.641C26.1045 473.901 26.0723 474.951 25.3534 473.909C25.3758 474.461 25.5366 475.163 25.7304 475.79C27.016 475.709 28.2934 475.641 29.5481 475.611C30.0983 475.891 29.4711 475.914 28.7834 475.94C28.042 475.968 27.2299 475.998 27.7484 476.355C29.4625 476.475 31.188 476.41 32.9527 476.343C34.6582 476.279 36.4006 476.213 38.2036 476.311C37.8454 476.352 37.7504 476.394 37.6709 476.428C37.6177 476.452 37.5714 476.472 37.4572 476.487C39.3293 476.681 39.1787 476.525 38.9986 476.339C38.8271 476.161 38.6288 475.955 40.1302 476C39.9664 476.284 40.116 476.358 41.1408 476.507L42.0422 476.046C42.1755 476.112 42.1717 476.405 41.8446 476.568C42.5696 476.308 43.8762 476.267 45.1411 476.228C46.4513 476.187 47.7172 476.148 48.2477 475.867C48.3717 475.932 48.2884 476.074 48.1964 476.232C48.0826 476.426 47.9554 476.644 48.1912 476.766C49.8042 476.938 50.9203 476.718 51.999 476.506L52.0295 476.498C52.7884 476.764 54.261 476.831 55.0117 476.865H55.0137C55.4038 476.883 55.5983 476.892 55.3936 476.916C56.9762 477.021 56.99 476.92 57.0133 476.75C57.033 476.604 57.0596 476.408 58.0902 476.247L55.7471 475.984L59.8845 475.864L58.2465 476.143C59.3347 476.274 60.4379 476.168 61.5969 476.056L61.5984 476.056C62.4633 475.973 63.3591 475.887 64.3027 475.894L63.2892 475.561L65.8067 475.362C65.9248 475.678 66.622 475.736 67.2029 475.785C67.8808 475.841 68.4006 475.885 67.6582 476.307C70.4427 476.517 72.6334 476.292 74.847 476.065C76.2934 475.917 77.75 475.768 79.3881 475.738C79.0999 475.755 79.0905 475.814 79.0801 475.878C79.0747 475.912 79.0689 475.947 79.0246 475.979C81.511 476.138 83.0079 475.788 84.4967 475.437C84.3646 475.529 84.1777 475.595 84.0081 475.654C83.7871 475.731 83.5947 475.798 83.5908 475.9C85.1339 475.908 85.5501 475.802 86.064 475.67C86.5311 475.551 87.0791 475.411 88.6252 475.317C87.7265 475.6 88.008 475.745 88.8969 475.821C88.7588 475.57 89.5053 475.393 90.1034 475.324C88.8043 476.044 89.9239 476.156 91.0212 476.266C91.9568 476.359 92.8761 476.451 92.2658 476.916C92.4398 476.819 93.0372 476.695 93.7177 476.555C95.0383 476.281 96.6709 475.942 96.1216 475.611C98.5713 475.378 101.088 475.389 103.687 475.401C105.965 475.411 108.307 475.422 110.721 475.268C110.594 475.308 110.333 475.357 110.056 475.408C109.364 475.535 108.572 475.682 109.522 475.765C112.881 475.901 115.318 475.649 118.049 475.366L118.051 475.366C119.497 475.216 121.026 475.058 122.818 474.944C122.94 475.383 121.496 475.406 120.019 475.429C118.585 475.451 117.119 475.474 117.026 475.879C122.484 475.697 128.098 475.408 134.162 474.976C135.249 475.625 136.768 475.48 138.496 475.315C140.154 475.156 142.005 474.979 143.852 475.468C143.492 475.042 145.364 474.892 147.408 474.886C147.035 475.069 147.475 475.158 147.875 475.24C148.225 475.31 148.544 475.375 148.266 475.492C150.056 475.106 155.221 474.957 155.024 475.784C155.27 475.357 156.349 475.399 157.525 475.445C158.551 475.485 159.65 475.528 160.334 475.266C161.492 475.422 162.733 475.376 164.049 475.329C165.304 475.283 166.628 475.235 168.012 475.356C167.393 475.04 168.617 475.025 169.886 475.01C170.461 475.003 171.045 474.996 171.471 474.961C171.234 474.996 171.035 475.042 171.124 475.086C171.567 475.314 172.43 475.203 173.381 475.081C174.26 474.969 175.215 474.846 175.984 474.972C176.3 475.052 176.305 475.151 176.31 475.241C176.315 475.356 176.32 475.456 176.982 475.48C177.004 475.122 181.3 474.714 182.897 475.155C182.4 475.153 182.234 475.235 182.039 475.331C181.977 475.362 181.911 475.394 181.831 475.425C181.792 475.441 181.749 475.456 181.702 475.47C185.325 475.183 189.067 475.21 192.832 475.238L192.834 475.238C196.904 475.267 201 475.297 205 474.929L203.637 475.531C206.32 475.969 206.993 475.614 207.722 475.229C208.301 474.923 208.917 474.598 210.61 474.64C213.861 474.738 217.152 474.892 220.449 475.046L220.457 475.046L220.459 475.046C227.747 475.387 235.069 475.729 242.076 475.474C242.503 475.374 242.301 475.317 242.026 475.239C241.82 475.181 241.572 475.112 241.516 475.003C241.836 475.031 242.074 475.114 242.303 475.195C242.71 475.337 243.092 475.471 243.859 475.269L243.589 474.942C245.7 475.346 248.654 475.268 251.576 475.19C255.104 475.096 258.584 475.003 260.475 475.762C262.496 475.53 264.249 475.59 266.065 475.652C268.245 475.726 270.519 475.803 273.463 475.383C274.333 475.533 273.807 475.674 273.382 475.789C272.972 475.899 272.656 475.984 273.791 476.026L278.796 475.529C281.25 475.103 284.452 475.403 287.789 475.716C291.047 476.021 294.432 476.338 297.374 476.003L297.116 476.051C296.977 476.276 298.228 476.55 299.209 476.477C299.456 476.362 299.172 476.285 298.773 476.178L298.77 476.177C298.69 476.155 298.606 476.133 298.521 476.108C298.448 476.087 298.374 476.065 298.301 476.041C303.668 475.676 304.874 475.657 309.075 475.591L309.165 475.59C308.182 475.766 308.732 475.839 309.489 475.939C310.153 476.026 310.978 476.135 311.066 476.354C311.521 476.231 311.5 476.128 311.481 476.032C311.454 475.891 311.429 475.765 312.916 475.617C315.364 475.591 317.678 475.777 319.847 475.951L319.851 475.952C320.839 476.031 321.796 476.108 322.722 476.161C323.209 475.993 323.76 475.913 324.246 475.842C324.953 475.74 325.523 475.656 325.566 475.352C327.333 475.343 328.757 475.299 330.218 475.254C332.078 475.197 333.998 475.138 336.763 475.146L336.892 475.323C337.636 474.963 338.9 475.115 340.027 475.25L340.028 475.251C340.901 475.356 341.691 475.451 342.092 475.29C342.033 475.389 341.899 475.463 341.779 475.53L341.777 475.53C341.623 475.615 341.49 475.688 341.565 475.788L343.807 475.586C342.75 475.778 342.152 476.385 343.996 476.458C345.057 476.211 344.781 476.143 344.481 476.069C344.24 476.01 343.983 475.947 344.399 475.783L344.981 476.38C346.429 476.32 346.832 475.647 345.059 475.462C347.233 475.47 349.394 475.421 351.508 475.373L351.513 475.373H351.515C354.203 475.312 356.814 475.252 359.277 475.313L358.813 475.699C361.25 475.561 364.543 475.57 365.995 475.914C366.015 475.879 366.085 475.836 366.162 475.789C366.335 475.682 366.539 475.556 366.267 475.466C367.685 475.213 367.792 475.36 367.902 475.511C367.999 475.645 368.098 475.781 369.111 475.643C368.504 475.732 367.935 475.817 367.839 475.985L373.77 475.522C373.836 475.811 377.449 476.464 379.953 476.215C380.05 476.053 379.33 475.832 378.688 475.797L380.293 475.655L381.535 476.332L383.854 475.745L383.901 476.307C384.734 476.255 385.321 476.056 385.865 475.873C386.437 475.679 386.961 475.502 387.671 475.53C390.977 475.766 391.749 475.928 392.826 476.156C393.44 476.285 394.155 476.435 395.493 476.632C395.713 476.053 397.394 476.112 399.045 476.17C400.462 476.22 401.856 476.27 402.285 475.914C405.449 476.441 409.519 476.433 413.736 476.425C416.083 476.421 418.476 476.416 420.783 476.504L420.257 476.597C421.701 476.861 422.491 476.628 423.341 476.377C424.117 476.148 424.944 475.904 426.362 476.01L425.619 476.169C429.439 476.751 436.131 476.241 439.747 475.794C439.009 475.954 439.386 476.3 440.553 476.265C440.987 476.173 440.851 476.015 440.739 475.885C440.596 475.719 440.493 475.599 441.641 475.716C441.136 475.818 441.538 476.054 442.005 476.062L444.01 475.529C449.277 475.908 455.474 476.306 460.931 476.008C461.722 476.158 461.443 476.308 461.17 476.454L461.169 476.455C461.093 476.496 461.017 476.536 460.966 476.577C463.172 476.524 465.371 476.384 467.514 476.247C469.575 476.116 471.586 475.987 473.502 475.944L473.902 476.566C474.708 476.567 475.044 476.399 475.35 476.245C475.769 476.035 476.132 475.852 477.574 476.175C477.802 476.21 477.567 476.223 477.164 476.244C476.583 476.275 475.651 476.324 475.248 476.486C477.306 476.743 477.81 476.553 478.396 476.332C478.905 476.141 479.476 475.926 481.183 475.962L480.229 476.661C482.422 476.989 483.143 476.585 483.837 476.197C484.034 476.086 484.228 475.977 484.454 475.887C486.355 475.493 487.078 475.794 487.919 476.144C488.822 476.521 489.861 476.953 492.642 476.638C493.066 476.466 492.995 476.339 492.924 476.211C492.853 476.084 492.782 475.956 493.205 475.785C495.098 475.879 496.155 475.803 497.214 475.726C498.272 475.65 499.331 475.573 501.225 475.667C502.259 476.201 501.74 476.191 501.273 476.181C500.823 476.172 500.421 476.163 501.505 476.646L498.623 476.402C499.886 476.685 499.285 476.715 498.438 476.758C497.617 476.799 496.564 476.852 496.759 477.158C498.038 477.284 499.767 477.08 501.51 476.874L501.512 476.874L501.519 476.873C502.317 476.779 503.117 476.685 503.879 476.622C503.881 476.833 503.308 476.864 502.781 476.892C502.14 476.927 501.567 476.957 502.186 477.306L503.429 477.117C503.342 477.153 503.273 477.191 503.207 477.227C503.016 477.334 502.845 477.429 502.301 477.418C502.594 477.704 503.119 477.633 503.774 477.544C504.134 477.496 504.534 477.441 504.957 477.439C505.032 477.206 504.978 476.882 504.627 476.558C504.681 476.597 504.765 476.638 504.895 476.681C506.183 476.326 507.942 476.304 509.622 476.284C511.117 476.266 512.549 476.248 513.531 475.997C513.288 476.098 513.372 476.147 513.48 476.209C513.52 476.232 513.563 476.258 513.593 476.288C514.391 476.303 515.199 476.13 516.086 475.94C516.838 475.779 517.647 475.606 518.553 475.526C518.945 475.651 518.973 475.821 518.999 475.978C519.045 476.255 519.085 476.491 521.105 476.373C521.289 476.247 521.261 476.089 521.234 475.934C521.178 475.617 521.125 475.315 522.907 475.328C522.907 475.328 520.589 475.642 521.832 475.918C523.3 475.768 523.382 475.827 523.6 475.988C523.768 476.112 524.018 476.296 525.053 476.491C525.655 476.248 526.234 476.26 526.718 476.27C527.322 476.283 527.775 476.293 527.932 475.796C528.534 476.217 528.594 476.23 529.16 476.355C529.394 476.406 529.714 476.477 530.194 476.602C529.829 476.36 530.603 476.241 531.455 476.11C532.306 475.979 533.237 475.836 533.181 475.546C533.477 475.838 532.984 476.029 532.515 476.211C531.915 476.443 531.358 476.659 532.564 477.05C533.054 476.902 533.685 476.787 534.316 476.671C535.569 476.442 536.822 476.212 536.968 475.737C537.342 475.792 537.648 475.858 537.955 475.924L537.957 475.925C538.547 476.052 539.139 476.179 540.214 476.234C539.976 476.24 539.724 476.339 539.577 476.397L539.561 476.403C540.843 476.207 542.378 476.176 543.861 476.147C544.271 476.138 544.677 476.13 545.073 476.119ZM106.351 22.3362L105.977 22.3355L106.173 22.4117L106.351 22.3362ZM115.051 24.3522L115.051 24.3417C114.594 24.3572 114.275 24.3666 114.033 24.3728L115.051 24.3522ZM118.536 23.97C118.013 23.9605 117.815 24.1432 117.999 24.3204C118.836 24.3179 119.626 24.3217 120.259 24.3441C120.008 24.2954 119.71 24.2514 119.431 24.2102C118.845 24.1236 118.344 24.0495 118.536 23.97ZM347.374 22.8368L345.284 22.8324C345.281 22.8408 345.28 22.8482 345.28 22.8556C345.279 22.8601 345.279 22.8647 345.278 22.8695C345.278 22.8715 345.277 22.8735 345.277 22.8756L345.276 22.8787C346.011 22.8824 346.707 22.869 347.374 22.8368ZM350.675 22.8436L349.881 22.842C349.813 22.8628 349.745 22.8838 349.681 22.9047C350 22.8906 350.331 22.8682 350.675 22.8436ZM360.468 22.8639L361.683 22.8665C361.127 22.9748 360.779 22.9361 360.468 22.8639ZM373.855 22.8917L373.971 22.9164C374.307 22.9878 374.623 23.055 374.86 23.1255L374.864 23.1255C375.646 23.0892 376.044 23.0015 376.255 22.8967L373.855 22.8917ZM377.403 22.8991L376.468 22.8972C376.441 22.9093 376.413 22.9223 376.386 22.9356L376.341 22.958C376.561 22.9448 376.788 22.9325 377.021 22.92L377.403 22.8991ZM398.518 22.9636L398.574 22.981C399.662 23.0948 400.316 23.0519 400.782 22.9477L398.458 22.9428L398.518 22.9636ZM424.786 22.9975L424.557 22.997C424.74 23.0395 424.915 23.0862 425.085 23.1392C424.931 23.0862 424.838 23.0397 424.786 22.9975ZM518.093 23.1912C518.467 23.3287 519.039 23.4373 519.807 23.4643C520.575 23.4049 521.067 23.309 521.372 23.1981L518.093 23.1912ZM549.025 75.3535L549.026 75.0199L548.911 75.195L549.025 75.3535ZM545.973 83.1125L545.989 83.1125C545.979 82.9437 545.971 82.796 545.964 82.6655C545.959 82.5824 545.955 82.5063 545.952 82.4362C545.948 82.3507 545.944 82.2741 545.941 82.2046L545.948 82.3914L545.973 83.1125ZM546.551 86.2206C546.566 85.7543 546.289 85.5775 546.021 85.7419C546.024 86.4883 546.019 87.193 545.985 87.7579C546.059 87.5338 546.125 87.2682 546.188 87.0194C546.319 86.4969 546.431 86.0492 546.551 86.2206ZM548.267 290.313L548.274 288.449C548.261 288.447 548.25 288.446 548.239 288.445C548.228 288.445 548.217 288.444 548.204 288.442C548.198 289.097 548.219 289.719 548.267 290.313ZM548.257 293.257L548.26 292.549C548.242 292.516 548.225 292.483 548.208 292.451C548.199 292.434 548.19 292.417 548.18 292.4L548.164 292.371C548.186 292.655 548.22 292.951 548.257 293.257ZM548.226 301.991L548.222 303.075C548.058 302.579 548.117 302.268 548.226 301.991ZM548.184 313.931L548.147 314.034C548.039 314.333 547.937 314.615 547.83 314.827V314.83C547.885 315.527 548.018 315.883 548.177 316.071L548.184 313.931ZM548.173 317.095L548.176 316.261C548.158 316.237 548.138 316.212 548.118 316.188L548.084 316.148C548.104 316.344 548.122 316.547 548.141 316.754L548.173 317.095ZM548.075 335.926L548.049 335.976C547.877 336.947 547.942 337.53 548.099 337.946L548.107 335.873L548.075 335.926ZM548.024 359.354L548.025 359.15C547.96 359.313 547.89 359.469 547.809 359.621C547.853 359.547 547.893 359.488 547.932 359.443C547.964 359.404 547.995 359.375 548.024 359.354ZM547.731 442.571C547.523 442.905 547.358 443.415 547.317 444.1C547.407 444.785 547.552 445.224 547.72 445.496L547.731 442.571ZM22.1752 399.708L22.1764 399.374L22.2907 399.532L22.1752 399.708ZM25.2292 391.615L25.2478 392.155C25.2523 392.29 25.2564 392.413 25.2604 392.523C25.251 392.307 25.2368 392.022 25.2132 391.615L25.2292 391.615ZM25.181 388.985C24.9127 389.15 24.636 388.973 24.6504 388.507C24.7707 388.678 24.883 388.23 25.0141 387.708C25.0764 387.459 25.1431 387.193 25.2169 386.969C25.183 387.534 25.1772 388.239 25.181 388.985ZM22.9277 186.278L22.9343 184.414C22.9832 185.009 23.0034 185.63 22.9979 186.285C22.9852 186.283 22.974 186.283 22.9628 186.282C22.9516 186.281 22.9405 186.28 22.9277 186.278ZM22.9422 182.178L22.9447 181.47C22.9819 181.777 23.0159 182.072 23.0372 182.356C23.0206 182.327 23.004 182.296 22.9874 182.264C22.9723 182.236 22.9572 182.207 22.9422 182.178ZM22.9755 172.736L22.9793 171.653C23.1433 172.148 23.0848 172.459 22.9755 172.736ZM23.0548 160.693L23.0176 160.797L23.0251 158.656C23.1839 158.845 23.3166 159.2 23.3715 159.897L23.3715 159.901C23.2649 160.112 23.1631 160.394 23.0548 160.693ZM23.0258 158.466L23.0287 157.633L23.0603 157.973C23.0793 158.181 23.0979 158.383 23.1178 158.58L23.0841 158.539C23.0639 158.515 23.0442 158.491 23.0258 158.466ZM23.1527 138.751L23.1263 138.801L23.0949 138.854L23.1022 136.781C23.2601 137.197 23.3251 137.78 23.1527 138.751ZM23.177 115.578L23.1777 115.373C23.2416 115.327 23.3121 115.243 23.3923 115.107C23.3121 115.259 23.2413 115.414 23.177 115.578ZM23.8846 30.6275C23.8437 31.3123 23.6792 31.8223 23.4711 32.1564L23.4814 29.2313C23.6494 29.5033 23.7946 29.9421 23.8846 30.6275ZM469.658 478.755L470.032 478.755L469.836 478.679L469.658 478.755ZM461.564 476.726L460.958 476.739L460.958 476.749C461.415 476.734 461.734 476.724 461.976 476.718C461.854 476.721 461.715 476.724 461.564 476.726ZM457.473 477.121C457.996 477.13 458.194 476.948 458.01 476.771C457.173 476.773 456.383 476.769 455.75 476.747C455.864 476.769 455.987 476.79 456.114 476.81C456.267 476.835 456.425 476.858 456.578 476.881C457.164 476.967 457.665 477.042 457.473 477.121ZM228.635 478.254L230.725 478.259C230.728 478.25 230.729 478.243 230.729 478.235C230.73 478.232 230.73 478.228 230.731 478.224C230.731 478.22 230.732 478.216 230.733 478.212C229.998 478.209 229.302 478.222 228.635 478.254ZM225.334 478.247L226.128 478.249C226.174 478.235 226.219 478.221 226.263 478.207C226.285 478.2 226.307 478.193 226.328 478.186C226.009 478.2 225.678 478.223 225.334 478.247ZM215.541 478.227L214.326 478.225C214.882 478.116 215.23 478.155 215.541 478.227ZM202.154 478.199L202.038 478.175C201.702 478.103 201.386 478.036 201.149 477.966H201.145C200.363 478.002 199.965 478.089 199.754 478.194L202.154 478.199ZM198.606 478.192L199.541 478.194C199.568 478.182 199.596 478.169 199.623 478.155L199.668 478.133C199.448 478.146 199.221 478.158 198.988 478.171L198.606 478.192ZM177.491 478.127L177.435 478.11C176.347 477.996 175.693 478.039 175.227 478.143L177.551 478.148L177.491 478.127ZM151.223 478.093L151.452 478.094C151.269 478.051 151.094 478.005 150.924 477.952C151.078 478.005 151.171 478.051 151.223 478.093ZM57.9164 477.9C57.5417 477.762 56.9698 477.654 56.202 477.627C55.4335 477.686 54.9415 477.782 54.6365 477.893L57.9164 477.9Z" fill="#ED1C24"/>
<rect x="10" y="11" width="550" height="480" stroke="white" stroke-width="4" stroke-linecap="round" stroke-linejoin="round" stroke-dasharray="8 24"/>
</svg>
